<?xml version="1.0" standalone="no"?>
<!DOCTYPE svg PUBLIC "-//W3C//DTD SVG 20010904//EN"
 "http://www.w3.org/TR/2001/REC-SVG-20010904/DTD/svg10.dtd">
<svg version="1.0" xmlns="http://www.w3.org/2000/svg"
 width="667.000000pt" height="1000.000000pt" viewBox="0 0 667.000000 1000.000000"
 preserveAspectRatio="xMidYMid meet">

<g transform="translate(0.000000,1000.000000) scale(0.100000,-0.100000)"
fill="#000000" stroke="none">
<path d="M3272 9585 c-39 -233 -130 -673 -161 -787 -27 -95 -167 -497 -223
-638 -76 -196 -314 -598 -468 -795 -51 -64 -52 -65 -19 -46 19 10 57 26 85 35
34 11 64 31 95 63 24 25 37 43 29 39 -8 -4 -1 4 15 18 32 28 45 32 45 16 0 -5
-6 -10 -14 -10 -8 0 -18 -5 -22 -12 -5 -7 -3 -8 6 -3 7 4 30 9 51 10 33 2 38
-1 35 -17 -1 -11 -19 -37 -38 -58 -20 -20 -33 -42 -29 -47 3 -5 34 -29 69 -53
111 -77 201 -216 261 -405 56 -173 63 -215 46 -270 -13 -44 -13 -50 2 -61 15
-10 13 -11 -11 -9 -16 2 -40 -3 -52 -12 -13 -8 -24 -11 -24 -7 0 5 -4 3 -8 -3
-6 -10 -17 -10 -42 -3 -19 6 -74 10 -122 10 -52 0 -88 4 -88 10 0 6 12 10 28
11 18 0 -2 10 -58 30 -139 47 -170 60 -170 70 0 6 9 5 21 -1 42 -23 27 -2 -33
46 -106 84 -173 151 -197 196 l-23 43 26 -30 c22 -25 19 -17 -14 45 -22 41
-40 83 -40 93 0 21 41 62 90 88 27 14 31 18 15 20 -36 3 -48 -2 -119 -50 -74
-51 -139 -114 -171 -169 -11 -17 -23 -32 -28 -32 -5 0 -2 11 7 25 9 14 24 37
34 52 l17 28 -35 -24 -35 -24 35 37 c19 21 77 63 128 93 50 31 92 57 92 59 0
1 -24 -4 -52 -13 -107 -31 -272 -128 -378 -223 -69 -61 -175 -145 -210 -165
-14 -9 167 167 229 222 26 22 31 32 21 38 -8 5 -11 4 -7 -2 4 -6 -11 -24 -32
-41 -31 -25 -40 -28 -45 -17 -3 8 0 15 7 15 7 0 20 9 29 20 15 17 15 20 2 28
-16 9 -10 42 8 42 5 0 7 4 3 9 -3 6 26 35 65 66 63 50 90 78 58 59 -50 -29
-263 -194 -355 -276 -188 -166 -672 -663 -839 -863 -254 -303 -409 -532 -487
-720 -41 -101 -40 -115 2 -26 75 154 175 276 336 408 50 40 103 86 119 101 24
22 26 22 10 3 -18 -23 -17 -22 21 3 22 15 40 31 40 36 0 5 4 12 9 17 5 5 6 2
1 -6 -5 -9 -3 -12 6 -9 8 3 13 11 11 17 -1 7 2 10 8 6 14 -9 52 14 44 27 -4 6
-3 8 3 5 6 -4 62 19 125 52 154 78 263 116 448 157 85 19 189 43 230 53 88 21
107 16 144 -38 31 -46 43 -93 54 -213 11 -119 30 -155 139 -259 78 -74 145
-115 206 -125 26 -4 20 1 -26 25 -56 27 -90 51 -74 51 4 0 44 -18 88 -41 45
-22 84 -38 87 -35 3 3 3 7 1 9 -73 51 -78 58 -72 88 5 27 4 31 -13 25 -10 -3
-25 -2 -33 3 -11 7 -11 16 3 57 9 26 16 56 16 66 0 10 9 36 20 58 27 53 26 73
-2 65 -16 -4 -1 14 42 54 89 84 198 137 315 155 75 12 82 14 45 16 l-45 2 40
8 c22 5 85 12 140 15 81 6 109 4 145 -10 76 -28 84 -30 75 -15 -5 9 -4 11 4 6
6 -4 9 -11 6 -16 -3 -4 1 -11 7 -14 16 -8 -21 0 -92 19 -32 9 -92 14 -145 14
l-90 -2 80 -8 c44 -5 97 -9 117 -10 21 -1 36 -5 33 -9 -3 -5 3 -6 14 -3 29 7
78 -23 105 -65 23 -36 47 -115 30 -99 -8 8 -36 -102 -35 -138 1 -24 -36 -150
-55 -186 -7 -15 -29 -48 -49 -74 -33 -43 -34 -46 -13 -41 13 4 1 -5 -25 -19
-27 -15 -54 -24 -60 -22 -7 2 -1 10 13 17 72 37 151 170 174 290 4 24 -8 7
-41 -59 -53 -103 -147 -215 -222 -263 -48 -30 -101 -36 -176 -18 -22 5 -41 7
-43 6 -6 -7 268 -159 290 -161 3 0 10 -4 15 -9 5 -5 3 -6 -4 -2 -20 11 -17 0
36 -129 118 -292 158 -491 191 -950 13 -177 28 -260 29 -166 1 30 3 52 5 50 4
-4 7 -65 27 -484 5 -120 12 -222 15 -225 3 -3 3 58 0 135 -6 131 -5 149 23
280 17 77 28 118 25 90 -3 -27 -12 -85 -20 -127 -9 -42 -14 -89 -11 -105 3
-23 4 -21 6 10 0 24 5 36 12 32 7 -5 8 5 3 30 -5 29 -4 36 6 30 9 -6 10 0 5
24 -7 31 -1 37 22 23 8 -5 9 -13 3 -22 -15 -23 -12 -33 5 -16 8 8 15 31 14 53
0 35 -1 36 -10 13 -8 -20 -12 -22 -19 -10 -5 8 -10 24 -10 35 0 16 2 17 10 5
15 -24 24 -3 31 78 4 48 6 -1 5 -128 -1 -113 -1 -198 0 -190 2 8 6 37 9 65 6
40 9 46 17 31 7 -13 7 -20 -1 -25 -7 -5 -11 -45 -10 -115 0 -59 3 -106 5 -103
3 2 8 46 13 98 5 58 8 -249 9 -801 0 -979 8 -1722 23 -2095 5 -132 9 -269 9
-304 0 -117 9 -58 20 134 12 205 61 825 85 1074 8 85 22 409 30 720 16 628 26
830 56 1161 46 521 89 981 99 1060 24 187 87 419 179 649 43 109 48 126 30
115 -6 -3 -4 5 6 19 10 15 22 24 31 20 8 -3 14 -1 14 4 0 5 21 15 48 21 39 11
217 101 209 107 -1 1 -33 -3 -72 -10 -85 -14 -134 -3 -195 45 -120 95 -234
295 -255 448 -6 46 -8 50 -25 40 -10 -7 -17 -15 -14 -19 2 -4 0 -10 -6 -14
-21 -13 -8 17 37 84 35 54 57 76 91 92 25 13 47 18 51 12 3 -5 17 -10 31 -11
14 0 35 -4 48 -7 12 -3 22 -1 22 5 0 5 -5 10 -12 10 -9 0 -9 3 -1 11 7 7 45
10 105 8 51 -1 112 -3 136 -3 23 -1 42 -4 42 -8 0 -3 15 -10 32 -14 41 -8 98
-35 98 -45 0 -4 -14 -10 -31 -14 -17 -4 -28 -9 -26 -11 3 -3 25 0 51 7 45 11
48 10 100 -24 80 -53 153 -133 187 -204 33 -68 49 -86 24 -25 -38 91 -136 212
-200 248 -19 11 -18 11 5 9 14 -2 39 -6 55 -9 24 -5 21 -2 -15 16 -25 12 -47
23 -50 23 -16 4 -86 41 -88 48 -2 4 -8 5 -12 2 -5 -3 -17 -1 -27 5 -23 13
-157 45 -254 61 -90 15 -194 1 -248 -32 -44 -27 -34 -33 20 -13 61 23 237 29
319 12 65 -14 64 -14 -101 -14 -133 1 -169 -2 -184 -14 -14 -11 -17 -11 -11
-1 7 10 3 11 -15 5 -13 -4 -36 -8 -51 -9 -14 0 -30 -4 -34 -8 -5 -4 0 -5 10
-1 14 5 17 4 12 -4 -9 -15 -36 -16 -36 -2 0 17 82 70 134 86 61 19 216 28 216
13 0 -7 14 -8 38 -5 26 5 79 -4 181 -29 80 -20 152 -34 162 -32 10 3 19 1 21
-5 2 -5 15 -11 29 -12 46 -5 134 -63 190 -126 29 -33 57 -68 61 -78 6 -15 7
-14 7 4 1 32 -56 110 -113 154 -28 22 -60 47 -71 56 -11 8 0 4 25 -10 58 -33
132 -106 160 -159 20 -37 22 -50 15 -93 l-9 -49 -6 40 -6 40 -5 -47 c-10 -77
-54 -135 -150 -200 -46 -31 -91 -63 -99 -71 -8 -7 -28 -21 -44 -31 -27 -17
-28 -19 -10 -29 22 -13 39 -16 119 -23 53 -4 75 1 200 44 77 27 195 73 263
101 265 110 489 171 631 171 91 0 286 -26 341 -45 23 -8 69 -33 103 -55 33
-22 54 -33 47 -25 -7 8 -8 15 -2 15 5 0 15 -7 22 -15 7 -8 9 -15 5 -15 -4 0
-2 -7 5 -15 7 -8 16 -13 20 -10 25 15 240 -269 300 -397 17 -35 27 -52 24 -38
-3 14 -36 88 -73 165 -101 209 -254 427 -493 701 -100 115 -288 303 -288 288
0 -5 22 -32 50 -59 27 -27 47 -51 45 -53 -3 -3 1 -12 8 -20 10 -14 9 -15 -8
-8 -11 5 -27 10 -35 11 -8 1 -22 5 -30 8 -8 3 -67 15 -130 26 -194 36 -261 52
-375 93 -240 86 -597 119 -856 79 -224 -34 -289 -37 -330 -15 l-34 18 55 8
c257 39 366 60 373 74 4 7 15 14 23 14 8 0 13 4 10 9 -3 4 2 15 12 23 27 23
42 30 42 19 0 -6 -12 -17 -27 -25 -16 -8 -23 -15 -18 -16 6 0 26 10 45 21 41
26 173 72 165 58 -4 -5 4 -9 17 -10 22 0 22 -1 3 -9 -17 -7 -16 -9 10 -10 26
-2 23 -4 -25 -21 l-55 -19 50 6 c103 12 200 48 254 94 l24 21 -24 16 c-53 37
-145 133 -215 226 -41 53 -73 97 -71 97 9 0 197 -106 258 -145 66 -42 231
-165 256 -191 11 -10 5 -12 -30 -11 -34 1 -224 -53 -412 -118 -5 -2 9 -4 32
-4 66 -1 178 24 323 74 73 25 143 44 155 41 18 -5 18 -3 -4 15 -13 10 -32 19
-42 19 -10 0 -19 5 -19 10 0 6 -12 15 -26 20 -14 6 -23 14 -19 19 3 5 0 13 -6
17 -8 4 -9 3 -5 -4 23 -38 -49 12 -134 92 -63 59 -171 136 -265 187 -90 50
-265 110 -296 102 -16 -5 -18 -8 -7 -14 7 -5 22 -6 33 -3 15 4 16 3 6 -4 -11
-8 -6 -15 22 -33 44 -29 65 -64 73 -121 11 -80 -9 -125 -94 -206 -134 -127
-191 -158 -357 -199 -79 -20 -142 -40 -139 -45 3 -5 -6 -6 -20 -2 -15 3 -52 3
-84 -1 l-57 -8 35 -12 35 -12 -43 -4 c-24 -3 -48 -1 -55 3 -6 4 -15 2 -18 -4
-22 -36 -259 190 -259 246 0 31 20 15 77 -61 36 -48 66 -78 78 -79 11 -1 45
-15 75 -33 47 -27 51 -28 25 -6 -16 13 -30 30 -31 37 0 7 -6 25 -13 39 -11 22
-11 32 2 60 8 19 32 86 53 149 61 191 140 327 240 420 27 25 48 48 47 52 -2 4
4 5 12 2 8 -4 17 1 21 10 3 9 13 16 21 16 9 0 4 10 -14 26 l-28 26 27 -16 c15
-9 35 -16 45 -16 11 0 3 9 -22 25 -22 13 -36 25 -31 25 5 0 25 -10 45 -22 19
-12 40 -24 46 -25 34 -7 133 -33 150 -38 l20 -7 -20 13 c-33 20 -195 141 -195
145 0 3 48 -27 108 -66 59 -39 90 -56 69 -38 -20 18 -74 55 -120 82 -136 81
-235 147 -261 173 -30 30 -180 288 -227 390 -18 40 -34 71 -36 69 -10 -9 40
-112 134 -278 l106 -187 78 -51 c43 -29 77 -55 76 -60 -2 -9 44 -46 131 -106
28 -20 52 -39 52 -41 0 -14 -53 17 -114 68 -89 72 -142 87 -249 70 -79 -13
-119 -31 -141 -63 -15 -21 -16 -21 -16 -3 -1 18 -2 17 -16 -5 l-15 -25 7 25
c3 14 18 38 33 53 23 26 24 28 6 25 -14 -2 -19 2 -17 14 2 15 -1 16 -22 8 -23
-8 -25 -8 -15 9 10 14 6 25 -18 59 -27 36 -32 39 -45 26 -13 -13 -16 3 -22
143 -3 87 -10 176 -14 198 -8 38 -9 35 -16 -40 -9 -93 -81 -387 -89 -365 -23
62 -29 149 -33 490 -3 206 -1 422 3 480 l9 105 17 -57 c20 -66 21 -82 6 -72
-16 9 -9 -18 44 -181 23 -71 45 -131 49 -133 5 -2 9 -20 9 -40 1 -27 3 -30 6
-12 7 45 12 53 26 42 9 -8 12 28 14 166 3 219 13 402 21 402 4 0 8 -27 9 -60
1 -38 -2 -58 -9 -54 -6 4 -8 -46 -6 -147 l4 -154 48 -120 c61 -155 97 -226
215 -419 108 -179 168 -246 276 -308 39 -23 79 -48 89 -57 23 -19 17 -5 -19
44 -87 120 -302 500 -364 644 -16 36 -58 152 -94 256 -36 105 -79 226 -96 270
-17 44 -31 88 -31 98 0 11 -6 33 -14 50 -7 18 -20 68 -29 112 -9 44 -30 143
-47 220 -17 77 -51 232 -75 345 -25 113 -43 185 -40 160 2 -25 9 -108 15 -185
9 -112 25 -196 77 -420 37 -154 66 -298 65 -320 -2 -22 -11 -110 -22 -195 -11
-85 -20 -170 -20 -187 0 -53 -16 -38 -29 25 -6 32 -29 112 -50 177 -21 66 -42
134 -46 150 -5 17 -8 228 -7 470 1 242 -2 469 -6 505 l-7 64 -23 -139z m25
-47 c-3 -8 -6 -5 -6 6 -1 11 2 17 5 13 3 -3 4 -12 1 -19z m-3 -375 c-4 -197
-8 -360 -10 -362 -2 -2 -4 77 -4 176 0 192 11 543 17 543 2 0 0 -161 -3 -357z
m213 -385 c-3 -8 -6 -5 -6 6 -1 11 2 17 5 13 3 -3 4 -12 1 -19z m-377 -111 c0
-18 -2 -19 -10 -7 -13 20 -13 43 0 35 6 -3 10 -16 10 -28z m13 -137 c4 -40 2
-57 -3 -45 -8 19 -14 123 -6 114 2 -2 6 -33 9 -69z m231 -76 c3 -8 2 -12 -4
-9 -6 3 -10 10 -10 16 0 14 7 11 14 -7z m-228 -21 c-10 -10 -19 5 -10 18 6 11
8 11 12 0 2 -7 1 -15 -2 -18z m5 -62 c6 9 9 -1 9 -32 0 -25 3 -68 6 -95 4 -39
3 -45 -6 -31 -6 9 -14 16 -18 13 -4 -2 -7 42 -7 98 -1 55 1 86 3 67 3 -26 6
-31 13 -20z m6 27 c-3 -8 -6 -5 -6 6 -1 11 2 17 5 13 3 -3 4 -12 1 -19z m279
-566 c-11 -10 -15 4 -8 28 l7 25 3 -23 c2 -13 1 -26 -2 -30z m-239 -74 c-2
-13 -4 -5 -4 17 -1 22 1 32 4 23 2 -10 2 -28 0 -40z m252 -12 c1 -36 -3 -67
-9 -71 -6 -4 -10 8 -10 30 0 22 -4 34 -10 30 -5 -3 -10 0 -10 7 0 18 23 68 31
68 4 0 7 -29 8 -64z m-194 -336 l5 -95 -19 135 c-11 74 -24 155 -30 180 -6 25
-10 59 -10 75 2 58 49 -201 54 -295z m-555 140 c-35 -24 -54 -31 -30 -11 14
11 30 21 35 21 6 0 3 -5 -5 -10z m855 -40 c3 -5 -12 -21 -34 -35 -23 -14 -43
-36 -47 -50 -3 -14 -10 -25 -14 -25 -18 0 23 77 53 98 37 26 34 25 42 12z
m-158 -42 c-3 -8 -6 -5 -6 6 -1 11 2 17 5 13 3 -3 4 -12 1 -19z m263 2 c0 -5
-8 -10 -17 -10 -15 0 -16 2 -3 10 19 12 20 12 20 0z m-123 -42 c-3 -8 -6 -5
-6 6 -1 11 2 17 5 13 3 -3 4 -12 1 -19z m-36 -21 c-10 -9 -11 -8 -5 6 3 10 9
15 12 12 3 -3 0 -11 -7 -18z m-931 9 c0 -8 -67 -46 -81 -46 -8 0 4 12 26 25
38 24 55 30 55 21z m961 -104 l-10 -47 4 60 c3 40 1 53 -5 40 -10 -24 -12 -10
-3 25 l7 24 9 -27 c6 -18 5 -45 -2 -75z m319 52 c0 -8 -4 -12 -10 -9 -5 3 -10
10 -10 16 0 5 5 9 10 9 6 0 10 -7 10 -16z m-243 -74 c-11 -27 -23 -48 -25 -46
-4 5 35 96 42 96 2 0 -5 -22 -17 -50z m112 47 c-2 -2 -24 -18 -48 -37 -35 -27
-42 -30 -32 -12 11 20 55 51 75 52 5 0 7 -1 5 -3z m-207 -74 c2 -24 0 -43 -4
-43 -5 0 -7 26 -7 58 1 61 6 55 11 -15z m202 12 c-4 -8 -8 -15 -10 -15 -2 0
-4 7 -4 15 0 8 4 15 10 15 5 0 7 -7 4 -15z m-188 -226 c-8 -30 -15 -46 -15
-37 -1 23 23 112 27 100 1 -4 -4 -33 -12 -63z m923 29 c20 -14 22 -20 12 -45
-11 -28 -11 -28 -6 -2 4 21 -1 31 -21 44 -26 16 -26 16 -19 -7 6 -22 6 -22 -9
-4 -9 11 -16 23 -16 27 0 12 34 4 59 -13z m-1169 -103 c0 -63 -3 -115 -7 -115
-5 0 -7 52 -5 115 2 63 5 115 8 115 2 0 4 -52 4 -115z m-1160 -22 c-23 -41
-23 -38 0 20 8 21 16 34 18 28 2 -5 -6 -27 -18 -48z m-380 27 c0 -5 -5 -10
-11 -10 -5 0 -7 5 -4 10 3 6 8 10 11 10 2 0 4 -4 4 -10z m462 -102 c12 -26 26
-44 31 -41 6 3 7 1 3 -6 -7 -10 29 -81 40 -81 3 0 2 5 -2 12 -16 25 16 -4 37
-35 l23 -32 -27 24 c-15 14 -27 21 -27 18 0 -4 -16 0 -36 8 -56 23 -66 17 -11
-7 26 -11 47 -24 47 -29 0 -13 -6 -12 -60 16 -58 29 -80 32 -53 8 10 -10 12
-14 5 -8 -12 8 -14 6 -8 -13 6 -19 4 -22 -18 -22 -39 0 -69 50 -61 100 4 22
11 38 16 34 5 -3 9 8 9 25 0 23 5 30 23 33 19 3 23 10 26 53 3 48 4 49 13 20
5 -16 19 -51 30 -77z m-492 79 c0 -2 -10 -12 -22 -23 l-23 -19 19 23 c18 21
26 27 26 19z m55 -15 c-6 -4 -24 -18 -40 -32 -29 -24 -29 -23 2 8 18 17 36 32
40 32 4 0 3 -3 -2 -8z m-31 -57 c-57 -53 -60 -54 -104 -48 -25 3 -47 8 -50 11
-3 3 17 2 44 -2 47 -6 49 -5 103 44 30 28 57 50 60 50 4 0 -20 -25 -53 -55z
m526 -85 c6 -11 8 -20 6 -20 -3 0 -10 9 -16 20 -6 11 -8 20 -6 20 3 0 10 -9
16 -20z m2113 -21 c-22 -38 -107 -117 -154 -143 -42 -24 -31 -12 46 46 34 25
74 64 89 87 34 48 45 54 19 10z m-2833 -64 c-7 -8 -17 -15 -23 -15 -6 0 -2 7
9 15 25 19 30 19 14 0z m-130 -26 c-7 -11 -14 -18 -17 -15 -3 3 0 12 7 21 18
21 23 19 10 -6z m2917 -63 c-37 -36 -67 -67 -67 -70 0 -3 8 -6 18 -7 9 0 -10
-7 -43 -14 -59 -12 -93 -12 -42 0 14 4 33 15 42 25 16 17 13 17 -47 -1 -79
-25 -134 -36 -223 -43 -70 -6 -70 -6 -35 9 19 9 36 12 38 7 2 -6 18 -6 40 -2
20 5 55 11 78 14 58 7 137 39 197 79 76 50 101 66 106 66 3 1 -25 -28 -62 -63z
m-2359 22 c4 -21 -16 -24 -24 -4 -5 12 -11 13 -30 4 -19 -9 -28 -8 -39 3 -12
12 -7 14 38 14 41 0 52 -4 55 -17z m1572 -13 c0 -5 -5 -3 -10 5 -5 8 -10 20
-10 25 0 6 5 3 10 -5 5 -8 10 -19 10 -25z m-1140 -62 c37 -13 50 -20 30 -17
-53 10 -136 43 -162 65 -21 18 -19 18 22 -2 25 -13 74 -33 110 -46z m695 57
c-3 -5 -16 -15 -28 -21 -21 -10 -21 -9 2 10 25 23 36 27 26 11z m15 -24 c0 -3
-4 -8 -10 -11 -5 -3 -10 -1 -10 4 0 6 5 11 10 11 6 0 10 -2 10 -4z m1045 -6
c-3 -5 -12 -10 -18 -10 -7 0 -6 4 3 10 19 12 23 12 15 0z m-1850 -20 c28 -10
43 -19 35 -19 -14 0 -101 36 -90 38 3 1 28 -8 55 -19z m675 -104 c0 -2 -7 -7
-16 -10 -8 -3 -12 -2 -9 4 6 10 25 14 25 6z m-1007 -13 c-13 -2 -33 -2 -45 0
-13 2 -3 4 22 4 25 0 35 -2 23 -4z m-85 -10 c-10 -2 -28 -2 -40 0 -13 2 -5 4
17 4 22 1 32 -1 23 -4z m-98 -14 c-19 -5 -62 -15 -95 -23 -55 -14 -57 -15 -15
-11 25 2 36 1 25 -2 -11 -3 -22 -8 -25 -12 -7 -9 -91 -41 -126 -47 -16 -3 -31
-8 -34 -12 -3 -4 -12 -7 -20 -7 -8 1 -25 -5 -37 -13 -12 -8 -28 -10 -34 -6 -8
4 -9 3 -5 -4 5 -8 -2 -12 -20 -12 -25 0 -22 4 31 41 32 22 66 43 74 45 9 2 41
12 71 23 64 23 184 49 220 49 19 0 17 -2 -10 -9z m173 4 c-7 -2 -19 -2 -25 0
-7 3 -2 5 12 5 14 0 19 -2 13 -5z m942 -7 c-24 -16 -65 -30 -65 -21 0 7 59 34
75 35 5 0 1 -6 -10 -14z m1748 -3 c-7 -2 -19 -2 -25 0 -7 3 -2 5 12 5 14 0 19
-2 13 -5z m-2396 -9 c-3 -3 -12 -4 -19 -1 -8 3 -5 6 6 6 11 1 17 -2 13 -5z
m-484 -11 c-7 -2 -19 -2 -25 0 -7 3 -2 5 12 5 14 0 19 -2 13 -5z m1007 -2
c-14 -5 -45 -5 -70 -1 -41 7 -39 8 25 8 47 0 62 -2 45 -7z m160 -21 c-6 -11
-13 -20 -16 -20 -2 0 0 9 6 20 6 11 13 20 16 20 2 0 0 -9 -6 -20z m514 -23
c12 -19 10 -22 -27 -31 -19 -4 -26 -3 -22 3 3 7 0 8 -9 5 -11 -4 -16 0 -16 15
0 15 6 21 21 21 19 0 20 2 8 17 -13 17 -13 17 10 2 14 -9 29 -23 35 -32z
m1226 28 c62 -13 63 -14 18 -12 -46 2 -52 -6 -13 -17 11 -3 -5 -2 -35 1 -30 3
-127 6 -215 7 -107 0 -139 2 -95 6 l65 7 -70 3 c-63 3 -66 4 -30 10 72 13 307
10 375 -5z m-1432 -7 c13 -13 -2 -38 -23 -38 -8 0 -15 -6 -17 -12 -4 -10 -10
-10 -30 -1 -24 11 -25 10 -22 -10 4 -22 4 -22 -7 1 -9 16 -9 28 -1 45 10 20
11 20 11 2 1 -18 2 -18 17 3 16 24 53 29 72 10z m-408 -40 c41 -17 80 -35 85
-40 6 -5 -15 0 -45 12 -90 36 -103 40 -181 55 l-74 14 70 -5 c44 -4 98 -17
145 -36z m1937 26 c-3 -3 -12 -4 -19 -1 -8 3 -5 6 6 6 11 1 17 -2 13 -5z
m-2802 -14 c-16 -4 -41 -8 -55 -8 -22 0 -22 1 5 8 17 4 41 8 55 8 22 0 22 -1
-5 -8z m2283 3 c-10 -2 -28 -2 -40 0 -13 2 -5 4 17 4 22 1 32 -1 23 -4z
m-1254 -28 c50 -27 177 -128 209 -167 24 -31 33 -35 48 -27 21 11 22 9 13 -15
-3 -9 -10 -13 -16 -10 -5 3 2 -16 15 -42 15 -30 24 -66 24 -92 l0 -43 -39 73
c-46 84 -97 140 -225 245 -51 41 -93 79 -93 84 0 14 32 10 64 -6z m-1629 -30
c-16 -13 -34 -24 -39 -25 -6 0 -2 6 9 13 26 20 -253 -34 -374 -72 -19 -6 -30
-7 -25 -2 18 17 180 61 314 85 74 13 137 25 140 25 3 0 -8 -10 -25 -24z m2492
19 c-3 -3 -12 -4 -19 -1 -8 3 -5 6 6 6 11 1 17 -2 13 -5z m-2132 -28 c-62 -24
-134 -43 -125 -33 8 8 151 55 170 56 8 0 -12 -10 -45 -23z m2025 10 c0 -2 -20
-16 -44 -30 -24 -14 -65 -42 -91 -62 -26 -19 -49 -33 -52 -31 -6 7 91 79 142
106 42 22 45 23 45 17z m227 -3 c-4 -3 -24 -8 -44 -10 -20 -2 -42 -7 -48 -12
-5 -4 -23 -8 -38 -9 -15 -1 -59 -12 -98 -25 -38 -13 -69 -22 -69 -20 0 10 135
66 177 73 61 10 128 12 120 3z m406 -46 c37 -21 67 -41 67 -43 0 -2 -17 3 -37
10 -21 7 -78 21 -128 32 l-90 18 43 9 c23 4 40 12 37 17 -10 17 42 -4 108 -43z
m815 17 c4 -4 -1 -4 -10 -1 -9 3 -33 9 -52 13 -20 3 -36 10 -36 15 0 9 88 -15
98 -27z m-3628 6 c-19 -11 -39 -19 -45 -19 -5 0 6 8 25 19 19 11 40 19 45 19
6 0 -6 -8 -25 -19z m2595 10 c13 -5 14 -9 5 -9 -8 0 -24 4 -35 9 -13 5 -14 9
-5 9 8 0 24 -4 35 -9z m-1282 -46 c101 -51 179 -108 201 -145 14 -23 19 -55
21 -131 1 -60 -1 -95 -6 -87 -5 8 -8 53 -7 101 2 84 0 90 -29 125 -54 68 -178
129 -338 168 l-60 14 73 -4 c60 -3 87 -11 145 -41z m2534 40 c-3 -3 -12 -4
-19 -1 -8 3 -5 6 6 6 11 1 17 -2 13 -5z m138 -44 c28 -5 76 -12 108 -16 67 -8
79 -17 202 -165 132 -158 425 -559 425 -582 0 -4 -26 25 -59 65 -62 78 -166
180 -269 268 -34 29 -61 55 -58 57 5 5 -38 53 -48 53 -4 0 -4 -6 0 -12 4 -8 3
-10 -2 -5 -5 5 -9 14 -9 20 0 6 -96 75 -214 154 -118 78 -220 151 -227 161
-12 17 -9 18 44 15 31 -2 80 -8 107 -13z m-4392 3 c-7 -2 -21 -2 -30 0 -10 3
-4 5 12 5 17 0 24 -2 18 -5z m4215 -46 c60 -38 85 -60 40 -36 -34 18 -128 81
-128 86 0 5 4 3 88 -50z m-2285 -71 c38 -50 38 -50 4 -11 -20 22 -55 57 -79
79 l-43 39 40 -28 c22 -15 57 -51 78 -79z m2137 84 c8 -5 11 -10 5 -10 -5 0
-17 5 -25 10 -8 5 -10 10 -5 10 6 0 17 -5 25 -10z m-2513 -21 c-102 -10 -190
-29 -271 -59 -69 -26 -70 -35 -1 -15 68 21 67 12 -3 -13 -32 -12 -80 -36 -106
-53 -64 -43 -149 -126 -141 -139 3 -6 0 -13 -9 -16 -23 -9 -68 -81 -81 -129
-10 -43 -11 -43 -24 -22 -8 12 -10 19 -5 14 4 -4 16 14 26 40 l17 47 -54 53
c-30 29 -55 56 -55 61 0 4 13 28 28 53 29 45 86 96 132 118 l25 12 -25 -18
c-43 -31 -101 -86 -95 -91 2 -3 39 18 81 47 43 29 83 50 91 47 8 -3 11 -1 8 4
-3 6 -3 10 2 11 52 5 61 4 52 -7 -13 -16 36 -24 75 -12 17 5 38 12 46 15 8 2
15 3 15 2 0 -1 11 3 24 10 40 22 192 50 266 49 l70 -1 -88 -8z m853 -32 c0 -2
-10 -12 -22 -23 l-23 -19 19 23 c18 21 26 27 26 19z m565 -17 c13 -5 14 -9 5
-9 -8 0 -24 4 -35 9 -13 5 -14 9 -5 9 8 0 24 -4 35 -9z m456 -7 c13 -16 12
-17 -3 -4 -10 7 -18 15 -18 17 0 8 8 3 21 -13z m-3471 3 c0 -3 -26 -19 -57
-37 -82 -46 -320 -206 -329 -220 -5 -9 -2 -10 10 -6 27 10 12 -5 -40 -43 -26
-18 -43 -27 -38 -19 5 8 9 18 9 24 0 23 179 151 350 252 94 55 95 56 95 49z
m2225 -26 c3 -5 -1 -10 -9 -10 -9 0 -16 5 -16 10 0 6 4 10 9 10 6 0 13 -4 16
-10z m1327 -52 c30 -44 16 -33 -27 20 -21 26 -28 38 -16 27 13 -11 32 -32 43
-47z m-1154 32 c-7 -10 -14 -17 -17 -15 -4 4 18 35 25 35 2 0 -1 -9 -8 -20z
m-174 -15 c-4 -8 -7 -15 -9 -15 -2 0 -5 7 -9 15 -3 9 0 15 9 15 9 0 12 -6 9
-15z m2419 -102 c37 -23 67 -45 67 -48 0 -3 -19 7 -42 23 -24 16 -76 48 -115
71 -40 23 -73 44 -73 47 0 6 73 -35 163 -93z m-2574 -8 c0 -5 -6 1 -14 15 -8
14 -14 30 -14 35 0 6 6 -1 14 -15 8 -14 14 -29 14 -35z m-1194 8 c-9 -22 -13
-42 -15 -68 -1 -15 -4 -13 -10 9 -7 20 -5 35 7 52 18 28 28 32 18 7z m1153
-83 c0 -34 0 -34 -9 9 -4 23 -11 53 -14 65 -2 12 2 8 10 -9 8 -16 14 -46 13
-65z m332 40 c-16 -40 -23 -33 -9 9 6 18 14 30 17 27 2 -3 -1 -19 -8 -36z
m-400 -11 c0 -14 -17 -10 -23 5 -4 10 -1 13 9 9 7 -3 14 -9 14 -14z m-1093
-71 c-3 -8 -6 -5 -6 6 -1 11 2 17 5 13 3 -3 4 -12 1 -19z m3981 -72 c34 -25
62 -48 62 -52 0 -5 -75 47 -135 94 -52 40 8 6 73 -42z m-3914 -43 c4 -7 5 -13
3 -13 -8 0 -67 92 -67 104 0 8 25 -28 64 -91z m-1404 83 c0 -2 -8 -10 -17 -17
-16 -13 -17 -12 -4 4 13 16 21 21 21 13z m2629 -195 c1 -79 -1 -142 -4 -140
-2 3 -6 79 -9 170 -2 90 0 153 4 139 4 -14 8 -90 9 -169z m-2669 156 c0 -2
-12 -14 -27 -28 l-28 -24 24 28 c23 25 31 32 31 24z m1389 -61 c-2 -2 -13 8
-23 22 l-19 27 24 -22 c12 -12 21 -24 18 -27z m1618 -9 c17 -58 9 -58 -11 -1
-18 53 -19 61 -9 50 4 -4 13 -26 20 -49z m-3101 -19 c-14 -18 -54 -69 -88
-113 -70 -92 -90 -113 -64 -70 28 45 64 94 119 158 53 60 78 79 33 25z m4044
-22 c0 -2 -8 -10 -17 -17 -16 -13 -17 -12 -4 4 13 16 21 21 21 13z m-886 -53
c14 -28 14 -31 0 -29 -21 3 -36 30 -28 51 8 19 7 19 28 -22z m776 -28 c0 -7
-77 -45 -92 -45 -7 0 10 11 37 24 59 29 55 27 55 21z m-739 -32 c13 -16 12
-17 -3 -4 -10 7 -18 15 -18 17 0 8 8 3 21 -13z m-518 -41 c3 7 5 4 5 -7 0 -11
3 -31 6 -45 4 -14 3 -18 0 -10 -4 8 -15 31 -26 50 -11 19 -13 27 -5 17 11 -14
16 -15 20 -5z m558 -22 c24 -11 39 -20 33 -20 -15 0 -84 29 -84 35 0 8 5 6 51
-15z m-464 -177 c-2 -32 -3 -8 -3 52 0 61 1 87 3 58 2 -29 2 -78 0 -110z m449
95 l29 -33 -32 29 c-31 28 -38 36 -30 36 2 0 16 -15 33 -32z m17 -54 c31 -31
46 -54 34 -54 -2 0 -23 20 -47 45 -52 53 -41 61 13 9z m-1026 10 c-3 -3 -12
-4 -19 -1 -8 3 -5 6 6 6 11 1 17 -2 13 -5z m271 -534 c0 -8 -6 1 -13 20 -7 19
-13 42 -13 50 0 8 6 -1 13 -20 7 -19 13 -42 13 -50z m9 -52 c-3 -8 -6 -5 -6 6
-1 11 2 17 5 13 3 -3 4 -12 1 -19z m21 -83 c0 -16 -2 -15 -8 5 -4 14 -8 34 -8
45 0 16 2 15 8 -5 4 -14 8 -34 8 -45z m327 -222 c66 -427 77 -498 95 -643 20
-152 24 -218 15 -209 -2 3 -6 20 -8 39 -31 251 -40 320 -53 410 -47 325 -65
440 -79 484 -8 27 -15 70 -14 95 1 43 1 44 10 16 4 -16 20 -103 34 -192z
m-318 150 c-3 -10 -5 -2 -5 17 0 19 2 27 5 18 2 -10 2 -26 0 -35z m10 -55 c-3
-7 -5 -2 -5 12 0 14 2 19 5 13 2 -7 2 -19 0 -25z m10 -70 c-3 -7 -5 -2 -5 12
0 14 2 19 5 13 2 -7 2 -19 0 -25z m20 -240 c-2 -13 -4 -3 -4 22 0 25 2 35 4
23 2 -13 2 -33 0 -45z m160 -225 c-2 -21 -4 -6 -4 32 0 39 2 55 4 38 2 -18 2
-50 0 -70z m-33 38 c-4 -23 -9 -40 -11 -37 -3 3 -2 23 2 46 4 23 9 39 11 37 3
-2 2 -23 -2 -46z m-4 -126 c0 -27 -5 -57 -10 -65 -7 -10 -8 0 -5 35 4 38 3 45
-5 30 -9 -16 -9 -14 -5 14 3 18 5 41 5 50 0 14 2 14 10 1 5 -8 10 -37 10 -65z
m47 -67 c-2 -24 -4 -7 -4 37 0 44 2 63 4 43 2 -21 2 -57 0 -80z m0 -105 c-3
-10 -5 -2 -5 17 0 19 2 27 5 18 2 -10 2 -26 0 -35z m-140 0 c-3 -10 -5 -4 -5
12 0 17 2 24 5 18 2 -7 2 -21 0 -30z"/>
<path d="M2130 6786 c0 -17 16 -30 23 -19 3 5 -1 14 -9 21 -12 10 -14 10 -14
-2z"/>
<path d="M1598 6393 c6 -2 18 -2 25 0 6 3 1 5 -13 5 -14 0 -19 -2 -12 -5z"/>
<path d="M4603 6383 c9 -2 23 -2 30 0 6 3 -1 5 -18 5 -16 0 -22 -2 -12 -5z"/>
<path d="M704 5849 c-19 -22 -19 -22 3 -10 24 12 39 31 25 31 -5 0 -17 -10
-28 -21z"/>
<path d="M3660 5625 c0 -5 5 -17 10 -25 5 -8 10 -10 10 -5 0 6 -5 17 -10 25
-5 8 -10 11 -10 5z"/>
<path d="M2636 7410 c-42 -46 -43 -50 -16 -50 12 0 24 9 29 23 5 13 16 29 25
36 9 7 16 17 16 22 0 19 -19 8 -54 -31z"/>
<path d="M4220 7323 c8 -3 22 -11 30 -17 13 -10 13 -9 1 7 -7 9 -21 17 -30 16
-13 0 -14 -1 -1 -6z"/>
<path d="M4657 7192 c12 -10 43 -38 68 -60 47 -41 55 -72 20 -72 -8 0 -15 -6
-15 -12 0 -26 299 -297 333 -302 8 -1 36 -20 63 -43 26 -23 50 -40 53 -38 2 3
-10 23 -27 44 -52 65 -37 58 46 -20 75 -72 112 -103 277 -230 l80 -62 -69 71
c-39 39 -72 69 -74 67 -6 -6 -167 146 -170 160 -5 19 -116 124 -125 118 -6 -3
-7 -1 -3 6 4 6 0 14 -11 18 -10 3 -31 18 -48 32 l-30 26 24 -27 c14 -16 19
-28 13 -28 -7 0 -20 13 -30 28 -19 31 -123 128 -214 200 -59 46 -74 72 -19 32
17 -12 31 -19 31 -15 0 3 -37 29 -82 58 -99 64 -120 75 -91 49z m360 -348 c-7
-7 -37 7 -37 17 0 6 9 5 21 -1 11 -7 19 -14 16 -16z m41 -72 c20 -30 11 -28
-19 4 -13 15 -18 25 -10 22 8 -2 21 -14 29 -26z"/>
<path d="M4840 7077 c0 -3 30 -29 68 -58 122 -95 354 -312 342 -319 -7 -4 -1
-13 16 -25 15 -10 48 -36 73 -59 40 -36 39 -33 -16 29 -65 74 -170 178 -264
261 -65 57 -219 177 -219 171z m441 -394 c13 -16 12 -17 -3 -4 -10 7 -18 15
-18 17 0 8 8 3 21 -13z"/>
<path d="M2927 6995 c9 -19 18 -33 21 -31 4 5 -26 66 -33 66 -3 0 3 -16 12
-35z"/>
<path d="M2330 6855 c13 -14 26 -25 28 -25 3 0 -5 11 -18 25 -13 14 -26 25
-28 25 -3 0 5 -11 18 -25z"/>
<path d="M5206 6635 c13 -20 54 -53 192 -158 6 -5 12 -7 12 -5 0 2 -35 32 -78
66 -43 34 -84 73 -91 86 -8 13 -22 26 -32 29 -17 5 -17 3 -3 -18z"/>
<path d="M4490 6620 c-9 -6 -10 -10 -3 -10 6 0 15 5 18 10 8 12 4 12 -15 0z"/>
<path d="M4350 6555 c-30 -9 -37 -13 -20 -13 14 0 43 5 65 13 52 17 14 17 -45
0z"/>
<path d="M5530 6375 c13 -14 26 -25 28 -25 3 0 -5 11 -18 25 -13 14 -26 25
-28 25 -3 0 5 -11 18 -25z"/>
<path d="M4018 6203 c6 -2 18 -2 25 0 6 3 1 5 -13 5 -14 0 -19 -2 -12 -5z"/>
<path d="M4105 6184 c28 -7 57 -13 65 -13 8 0 -7 7 -35 15 -27 7 -57 13 -65
13 -8 0 8 -7 35 -15z"/>
<path d="M4435 6109 c17 -13 43 -37 59 -54 22 -22 26 -24 17 -8 -11 21 -59 62
-91 77 -8 4 -1 -3 15 -15z"/>
<path d="M2991 4524 c0 -11 3 -14 6 -6 3 7 2 16 -1 19 -3 4 -6 -2 -5 -13z"/>
<path d="M3002 4460 c0 -14 2 -19 5 -12 2 6 2 18 0 25 -3 6 -5 1 -5 -13z"/>
<path d="M3013 4365 c0 -22 2 -30 4 -17 2 12 2 30 0 40 -3 9 -5 -1 -4 -23z"/>
<path d="M3022 4250 c0 -14 2 -19 5 -12 2 6 2 18 0 25 -3 6 -5 1 -5 -13z"/>
<path d="M3032 4140 c0 -19 2 -27 5 -17 2 9 2 25 0 35 -3 9 -5 1 -5 -18z"/>
<path d="M3180 3711 c0 -11 4 -22 9 -25 4 -3 6 6 3 19 -5 30 -12 33 -12 6z"/>
<path d="M3177 3653 c-3 -5 -1 -17 4 -28 7 -17 8 -17 8 8 1 27 -4 34 -12 20z"/>
<path d="M3160 3611 c0 -6 4 -13 10 -16 6 -3 7 1 4 9 -7 18 -14 21 -14 7z"/>
<path d="M3133 3310 c0 -30 3 -89 7 -130 l7 -75 0 60 c0 33 -3 92 -7 130 -7
68 -7 68 -7 15z"/>
<path d="M3153 3010 c0 -41 2 -58 4 -37 2 20 2 54 0 75 -2 20 -4 3 -4 -38z"/>
</g>
</svg>
